<svg width="98" height="11" viewBox="0 0 98 11" fill="none" xmlns="http://www.w3.org/2000/svg">
<path d="M10.9419 5.47241C10.9419 6.55561 10.6205 7.61443 10.0184 8.5148C9.41635 9.41516 8.56067 10.1165 7.55979 10.5301C6.55892 10.9437 5.45788 11.0508 4.39606 10.838C3.33425 10.6252 2.35945 10.102 1.59514 9.33461C0.830842 8.56724 0.311415 7.59022 0.102637 6.52734C-0.106141 5.46446 0.00513584 4.36356 0.422362 3.36398C0.839588 2.36441 1.54401 1.51114 2.44639 0.912298C3.34877 0.313461 4.40852 -0.00401852 5.49143 3.84007e-05C6.93886 0.00546091 8.32513 0.584405 9.3467 1.61008C10.3683 2.63576 10.9419 4.0246 10.9419 5.47241Z" fill="#037EE6"/>
<path opacity="0.2" d="M40.1203 5.47243C40.1203 6.55475 39.7994 7.61276 39.1983 8.51268C38.5971 9.4126 37.7427 10.114 36.743 10.5282C35.7433 10.9423 34.6433 11.0507 33.582 10.8396C32.5208 10.6284 31.5459 10.1073 30.7808 9.34194C30.0157 8.57662 29.4946 7.60152 29.2835 6.53999C29.0724 5.47846 29.1808 4.37814 29.5949 3.3782C30.009 2.37826 30.7102 1.52364 31.6098 0.922328C32.5095 0.321019 33.5673 6.10759e-05 34.6493 6.10759e-05C36.0987 0.00546036 37.4871 0.583757 38.5119 1.60885C39.5368 2.63395 40.1149 4.02273 40.1203 5.47243Z" fill="#037EE6"/>
<path opacity="0.2" d="M69.2987 5.47243C69.2987 6.55475 68.9779 7.61276 68.3767 8.51268C67.7756 9.4126 66.9211 10.114 65.9214 10.5282C64.9218 10.9423 63.8217 11.0507 62.7605 10.8396C61.6992 10.6284 60.7244 10.1073 59.9593 9.34194C59.1942 8.57662 58.6731 7.60152 58.462 6.53999C58.2509 5.47846 58.3592 4.37814 58.7733 3.3782C59.1874 2.37826 59.8886 1.52364 60.7883 0.922328C61.688 0.321019 62.7458 6.10759e-05 63.8278 6.10759e-05C65.2788 6.10759e-05 66.6703 0.576585 67.6963 1.60285C68.7223 2.62911 69.2987 4.02107 69.2987 5.47243Z" fill="#037EE6"/>
<path opacity="0.2" d="M98 5.47236C98 6.55469 97.6792 7.6127 97.078 8.51262C96.4769 9.41254 95.6224 10.1139 94.6227 10.5281C93.623 10.9423 92.523 11.0507 91.4617 10.8395C90.4005 10.6284 89.4257 10.1072 88.6606 9.34188C87.8954 8.57656 87.3743 7.60146 87.1632 6.53993C86.9521 5.4784 87.0605 4.37808 87.4746 3.37814C87.8887 2.3782 88.5899 1.52357 89.4896 0.922267C90.3893 0.320958 91.447 0 92.5291 0C93.9801 0 95.3716 0.576524 96.3976 1.60279C97.4236 2.62905 98 4.02101 98 5.47236Z" fill="#037EE6"/>
</svg>
