<svg width="202" height="202" viewBox="0 0 202 202" fill="none" xmlns="http://www.w3.org/2000/svg">
<g filter="url(#filter0_d_546_158)">
<path d="M101 194C154.572 194 198 150.572 198 97C198 43.4284 154.572 0 101 0C47.4284 0 4 43.4284 4 97C4 150.572 47.4284 194 101 194Z" fill="#509ADA"/>
<path fill-rule="evenodd" clip-rule="evenodd" d="M102.698 141.408C106.963 141.11 111.192 140.42 115.332 139.347C120.44 140.904 125.839 141.257 131.106 140.377C131.316 140.35 131.526 140.334 131.737 140.329C133.616 140.329 136.084 141.42 139.679 143.724V139.935C139.679 139.279 139.854 138.636 140.186 138.07C140.517 137.504 140.993 137.037 141.564 136.715C143.132 135.826 144.581 134.818 145.911 133.69C151.149 129.253 154.107 123.336 154.107 117.067C154.099 114.957 153.778 112.924 153.144 110.968C154.732 108.01 155.999 104.918 156.945 101.692C159.98 106.247 161.607 111.594 161.625 117.067C161.625 125.585 157.66 133.527 150.803 139.334C149.657 140.301 148.453 141.196 147.196 142.014V150.871C147.196 153.921 143.68 155.673 141.2 153.86C138.856 152.107 136.428 150.468 133.925 148.95C133.209 148.521 132.463 148.142 131.694 147.816C129.629 148.127 127.53 148.283 125.396 148.283C116.835 148.283 108.924 145.718 102.698 141.408ZM57.4349 123.693C46.6194 114.521 40.375 102.026 40.375 88.6338C40.375 61.2737 66.1891 39.4062 97.7081 39.4062C129.227 39.4062 155.047 61.2737 155.047 88.6338C155.047 116 129.227 137.867 97.7081 137.867C94.1595 137.867 90.6675 137.595 87.2321 137.049C85.7467 137.401 79.8116 140.929 71.2574 147.173C68.1594 149.441 63.7641 147.252 63.7641 143.439V128.331C61.5458 126.939 59.4306 125.389 57.4349 123.693ZM87.4382 127.731C87.7009 127.731 87.9636 127.751 88.2263 127.791C91.3182 128.313 94.4949 128.58 97.7081 128.58C124.335 128.58 145.644 110.525 145.644 88.6338C145.644 66.7481 124.335 48.694 97.7081 48.694C71.0937 48.694 49.7719 66.7481 49.7719 88.6338C49.7719 99.2189 54.7492 109.186 63.5519 116.643C65.7749 118.518 68.1918 120.199 70.8027 121.687C72.2638 122.511 73.1671 124.051 73.1671 125.712V134.424C79.9328 129.883 84.3827 127.731 87.4382 127.731ZM73.2701 97.9276C69.1173 97.9276 65.7526 94.5932 65.7526 90.4949C65.7526 86.3906 69.1173 83.0623 73.2701 83.0623C77.4229 83.0623 80.7876 86.3906 80.7876 90.4949C80.7876 94.5993 77.4229 97.9276 73.2701 97.9276ZM97.7081 97.9276C93.5552 97.9276 90.1906 94.5932 90.1906 90.4949C90.1906 86.3906 93.5552 83.0623 97.7081 83.0623C101.861 83.0623 105.226 86.3906 105.226 90.4949C105.226 94.5993 101.861 97.9276 97.7081 97.9276ZM122.146 97.9276C117.993 97.9276 114.628 94.5932 114.628 90.4949C114.628 86.3906 117.993 83.0623 122.146 83.0623C126.299 83.0623 129.664 86.3906 129.664 90.4949C129.664 94.5993 126.299 97.9276 122.146 97.9276Z" fill="white"/>
</g>
<defs>
<filter id="filter0_d_546_158" x="0" y="0" width="202" height="202" filterUnits="userSpaceOnUse" color-interpolation-filters="sRGB">
<feFlood flood-opacity="0" result="BackgroundImageFix"/>
<feColorMatrix in="SourceAlpha" type="matrix" values="0 0 0 0 0 0 0 0 0 0 0 0 0 0 0 0 0 0 127 0" result="hardAlpha"/>
<feOffset dy="4"/>
<feGaussianBlur stdDeviation="2"/>
<feComposite in2="hardAlpha" operator="out"/>
<feColorMatrix type="matrix" values="0 0 0 0 0 0 0 0 0 0 0 0 0 0 0 0 0 0 0.25 0"/>
<feBlend mode="normal" in2="BackgroundImageFix" result="effect1_dropShadow_546_158"/>
<feBlend mode="normal" in="SourceGraphic" in2="effect1_dropShadow_546_158" result="shape"/>
</filter>
</defs>
</svg>
