<svg width="266" height="270" viewBox="0 0 266 270" fill="none" xmlns="http://www.w3.org/2000/svg">
<g filter="url(#filter0_d_546_90)">
<path d="M41.5625 141.312C34.9487 141.313 28.6057 143.94 23.929 148.617C19.2523 153.293 16.625 159.636 16.625 166.25V167.497C16.625 167.497 16.625 216.125 87.2812 216.125C157.938 216.125 157.938 167.497 157.938 167.497V166.25C157.938 159.636 155.31 153.293 150.633 148.617C145.957 143.94 139.614 141.313 133 141.312H41.5625Z" fill="url(#paint0_linear_546_90)"/>
<path d="M41.5625 141.312C34.9487 141.313 28.6057 143.94 23.929 148.617C19.2523 153.293 16.625 159.636 16.625 166.25V167.497C16.625 167.497 16.625 216.125 87.2812 216.125C157.938 216.125 157.938 167.497 157.938 167.497V166.25C157.938 159.636 155.31 153.293 150.633 148.617C145.957 143.94 139.614 141.313 133 141.312H41.5625Z" fill="url(#paint1_linear_546_90)"/>
<path d="M41.5625 141.312C34.9487 141.313 28.6057 143.94 23.929 148.617C19.2523 153.293 16.625 159.636 16.625 166.25V167.497C16.625 167.497 16.625 216.125 87.2812 216.125C157.938 216.125 157.938 167.497 157.938 167.497V166.25C157.938 159.636 155.31 153.293 150.633 148.617C145.957 143.94 139.614 141.313 133 141.312H41.5625Z" fill="url(#paint2_radial_546_90)" fill-opacity="0.5"/>
<path d="M191.188 124.688C200.006 124.688 208.463 121.184 214.699 114.949C220.934 108.713 224.438 100.256 224.438 91.4375C224.438 82.6191 220.934 74.1618 214.699 67.9262C208.463 61.6906 200.006 58.1875 191.188 58.1875C182.369 58.1875 173.912 61.6906 167.676 67.9262C161.441 74.1618 157.938 82.6191 157.938 91.4375C157.938 100.256 161.441 108.713 167.676 114.949C173.912 121.184 182.369 124.688 191.188 124.688Z" fill="url(#paint3_linear_546_90)"/>
<path d="M87.2812 124.688C99.4066 124.688 111.035 119.871 119.609 111.297C128.183 102.723 133 91.0941 133 78.9688C133 66.8434 128.183 55.2146 119.609 46.6407C111.035 38.0668 99.4066 33.25 87.2812 33.25C75.1559 33.25 63.5271 38.0668 54.9532 46.6407C46.3793 55.2146 41.5625 66.8434 41.5625 78.9688C41.5625 91.0941 46.3793 102.723 54.9532 111.297C63.5271 119.871 75.1559 124.688 87.2812 124.688Z" fill="url(#paint4_linear_546_90)"/>
<path fill-rule="evenodd" clip-rule="evenodd" d="M191.188 261.844C207.722 261.844 223.579 255.275 235.271 243.584C246.963 231.892 253.531 216.035 253.531 199.5C253.531 182.965 246.963 167.108 235.271 155.416C223.579 143.725 207.722 137.156 191.188 137.156C174.653 137.156 158.796 143.725 147.104 155.416C135.412 167.108 128.844 182.965 128.844 199.5C128.844 216.035 135.412 231.892 147.104 243.584C158.796 255.275 174.653 261.844 191.188 261.844Z" fill="#212121"/>
<path fill-rule="evenodd" clip-rule="evenodd" d="M191.188 261.844C207.722 261.844 223.579 255.275 235.271 243.584C246.963 231.892 253.531 216.035 253.531 199.5C253.531 182.965 246.963 167.108 235.271 155.416C223.579 143.725 207.722 137.156 191.188 137.156C174.653 137.156 158.796 143.725 147.104 155.416C135.412 167.108 128.844 182.965 128.844 199.5C128.844 216.035 135.412 231.892 147.104 243.584C158.796 255.275 174.653 261.844 191.188 261.844Z" fill="url(#paint5_linear_546_90)"/>
<path fill-rule="evenodd" clip-rule="evenodd" d="M205.734 199.5H230.672C232.325 199.5 233.911 198.843 235.08 197.674C236.249 196.505 236.906 194.919 236.906 193.266V172.484C236.906 170.831 236.249 169.245 235.08 168.076C233.911 166.907 232.325 166.25 230.672 166.25C229.018 166.25 227.433 166.907 226.264 168.076C225.094 169.245 224.438 170.831 224.438 172.484V182.343C221.905 177.434 218.316 173.146 213.93 169.789C209.543 166.431 204.468 164.087 199.068 162.924C193.667 161.762 188.077 161.809 182.697 163.064C177.317 164.319 172.283 166.75 167.954 170.182C164.371 173.025 165.552 178.37 169.65 180.423C171.778 181.478 174.305 180.988 176.217 179.558C179.038 177.439 182.277 175.943 185.719 175.168C189.161 174.394 192.729 174.358 196.186 175.065C199.643 175.771 202.91 177.203 205.773 179.266C208.636 181.329 211.028 183.975 212.792 187.031H205.734C204.081 187.031 202.495 187.688 201.326 188.857C200.157 190.026 199.5 191.612 199.5 193.266C199.5 194.919 200.157 196.505 201.326 197.674C202.495 198.843 204.081 199.5 205.734 199.5ZM212.152 230.481C215.41 228.278 215.385 223.698 212.601 220.913C210.514 218.827 207.147 218.885 204.67 220.481C201.831 222.305 198.651 223.534 195.323 224.094C191.995 224.653 188.588 224.532 185.308 223.736C182.029 222.94 178.945 221.487 176.243 219.464C173.542 217.441 171.279 214.892 169.592 211.969H176.641C178.294 211.969 179.88 211.312 181.049 210.143C182.218 208.974 182.875 207.388 182.875 205.734C182.875 204.081 182.218 202.495 181.049 201.326C179.88 200.157 178.294 199.5 176.641 199.5H151.703C150.05 199.5 148.464 200.157 147.295 201.326C146.126 202.495 145.469 204.081 145.469 205.734V226.516C145.469 228.169 146.126 229.755 147.295 230.924C148.464 232.093 150.05 232.75 151.703 232.75C153.357 232.75 154.942 232.093 156.111 230.924C157.281 229.755 157.938 228.169 157.938 226.516V216.657C160.361 221.355 163.754 225.486 167.891 228.778C172.028 232.069 176.815 234.446 181.938 235.753C187.061 237.059 192.402 237.264 197.61 236.356C202.818 235.447 207.774 233.445 212.152 230.481Z" fill="#242424"/>
<path fill-rule="evenodd" clip-rule="evenodd" d="M205.734 199.5H230.672C232.325 199.5 233.911 198.843 235.08 197.674C236.249 196.505 236.906 194.919 236.906 193.266V172.484C236.906 170.831 236.249 169.245 235.08 168.076C233.911 166.907 232.325 166.25 230.672 166.25C229.018 166.25 227.433 166.907 226.264 168.076C225.094 169.245 224.438 170.831 224.438 172.484V182.343C221.905 177.434 218.316 173.146 213.93 169.789C209.543 166.431 204.468 164.087 199.068 162.924C193.667 161.762 188.077 161.809 182.697 163.064C177.317 164.319 172.283 166.75 167.954 170.182C164.371 173.025 165.552 178.37 169.65 180.423C171.778 181.478 174.305 180.988 176.217 179.558C179.038 177.439 182.277 175.943 185.719 175.168C189.161 174.394 192.729 174.358 196.186 175.065C199.643 175.771 202.91 177.203 205.773 179.266C208.636 181.329 211.028 183.975 212.792 187.031H205.734C204.081 187.031 202.495 187.688 201.326 188.857C200.157 190.026 199.5 191.612 199.5 193.266C199.5 194.919 200.157 196.505 201.326 197.674C202.495 198.843 204.081 199.5 205.734 199.5ZM212.152 230.481C215.41 228.278 215.385 223.698 212.601 220.913C210.514 218.827 207.147 218.885 204.67 220.481C201.831 222.305 198.651 223.534 195.323 224.094C191.995 224.653 188.588 224.532 185.308 223.736C182.029 222.94 178.945 221.487 176.243 219.464C173.542 217.441 171.279 214.892 169.592 211.969H176.641C178.294 211.969 179.88 211.312 181.049 210.143C182.218 208.974 182.875 207.388 182.875 205.734C182.875 204.081 182.218 202.495 181.049 201.326C179.88 200.157 178.294 199.5 176.641 199.5H151.703C150.05 199.5 148.464 200.157 147.295 201.326C146.126 202.495 145.469 204.081 145.469 205.734V226.516C145.469 228.169 146.126 229.755 147.295 230.924C148.464 232.093 150.05 232.75 151.703 232.75C153.357 232.75 154.942 232.093 156.111 230.924C157.281 229.755 157.938 228.169 157.938 226.516V216.657C160.361 221.355 163.754 225.486 167.891 228.778C172.028 232.069 176.815 234.446 181.938 235.753C187.061 237.059 192.402 237.264 197.61 236.356C202.818 235.447 207.774 233.445 212.152 230.481Z" fill="url(#paint6_linear_546_90)"/>
</g>
<defs>
<filter id="filter0_d_546_90" x="-4" y="0" width="274" height="274" filterUnits="userSpaceOnUse" color-interpolation-filters="sRGB">
<feFlood flood-opacity="0" result="BackgroundImageFix"/>
<feColorMatrix in="SourceAlpha" type="matrix" values="0 0 0 0 0 0 0 0 0 0 0 0 0 0 0 0 0 0 127 0" result="hardAlpha"/>
<feOffset dy="4"/>
<feGaussianBlur stdDeviation="2"/>
<feComposite in2="hardAlpha" operator="out"/>
<feColorMatrix type="matrix" values="0 0 0 0 0 0 0 0 0 0 0 0 0 0 0 0 0 0 0.25 0"/>
<feBlend mode="normal" in2="BackgroundImageFix" result="effect1_dropShadow_546_90"/>
<feBlend mode="normal" in="SourceGraphic" in2="effect1_dropShadow_546_90" result="shape"/>
</filter>
<linearGradient id="paint0_linear_546_90" x1="50.2324" y1="151.254" x2="75.544" y2="227.621" gradientUnits="userSpaceOnUse">
<stop offset="0.125" stop-color="#96C2FF"/>
<stop offset="1" stop-color="#6C9AFE"/>
</linearGradient>
<linearGradient id="paint1_linear_546_90" x1="87.2812" y1="132.41" x2="122.825" y2="257.862" gradientUnits="userSpaceOnUse">
<stop stop-color="#5E7BDB" stop-opacity="0"/>
<stop offset="1" stop-color="#628DF8"/>
</linearGradient>
<radialGradient id="paint2_radial_546_90" cx="0" cy="0" r="1" gradientUnits="userSpaceOnUse" gradientTransform="translate(174.571 187.031) rotate(66.9491) scale(60.6555 63.8126)">
<stop stop-color="#30116E"/>
<stop offset="0.268" stop-color="#30116E" stop-opacity="0.812"/>
<stop offset="1" stop-color="#30116E" stop-opacity="0"/>
</radialGradient>
<linearGradient id="paint3_linear_546_90" x1="173.748" y1="67.0237" x2="207.646" y2="121.146" gradientUnits="userSpaceOnUse">
<stop offset="0.125" stop-color="#1118A6"/>
<stop offset="1" stop-color="#4FB4CA"/>
</linearGradient>
<linearGradient id="paint4_linear_546_90" x1="63.308" y1="45.4029" x2="109.908" y2="119.816" gradientUnits="userSpaceOnUse">
<stop offset="0.125" stop-color="#BD96FF"/>
<stop offset="1" stop-color="#6CEFFE"/>
</linearGradient>
<linearGradient id="paint5_linear_546_90" x1="133.299" y1="160.539" x2="219.342" y2="249.94" gradientUnits="userSpaceOnUse">
<stop stop-color="#496995" stop-opacity="0.4"/>
<stop offset="1" stop-color="#037EE6"/>
</linearGradient>
<linearGradient id="paint6_linear_546_90" x1="145.469" y1="155.859" x2="187.58" y2="248.868" gradientUnits="userSpaceOnUse">
<stop stop-color="white"/>
<stop offset="1" stop-color="#E3FFD9"/>
</linearGradient>
</defs>
</svg>
