<svg width="243" height="243" viewBox="0 0 243 243" fill="none" xmlns="http://www.w3.org/2000/svg">
<g filter="url(#filter0_d_546_187)">
<path d="M121.5 91.125C141.072 91.125 156.938 75.2591 156.938 55.6875C156.938 36.1159 141.072 20.25 121.5 20.25C101.928 20.25 86.0625 36.1159 86.0625 55.6875C86.0625 75.2591 101.928 91.125 121.5 91.125Z" fill="#2184BA" stroke="black" stroke-width="2" stroke-linecap="round" stroke-linejoin="round"/>
<path d="M20.25 207.562C20.25 162.827 61.0482 126.562 111.375 126.562" stroke="black" stroke-width="2" stroke-linecap="round" stroke-linejoin="round"/>
<path d="M141.75 147.825C141.75 142.425 177.188 131.625 177.188 131.625C177.188 131.625 212.625 142.425 212.625 147.825C212.625 191.025 177.188 212.625 177.188 212.625C177.188 212.625 141.75 191.025 141.75 147.825Z" fill="#2184BA" stroke="black" stroke-width="2" stroke-linecap="round" stroke-linejoin="round"/>
</g>
<defs>
<filter id="filter0_d_546_187" x="-4" y="0" width="251" height="251" filterUnits="userSpaceOnUse" color-interpolation-filters="sRGB">
<feFlood flood-opacity="0" result="BackgroundImageFix"/>
<feColorMatrix in="SourceAlpha" type="matrix" values="0 0 0 0 0 0 0 0 0 0 0 0 0 0 0 0 0 0 127 0" result="hardAlpha"/>
<feOffset dy="4"/>
<feGaussianBlur stdDeviation="2"/>
<feComposite in2="hardAlpha" operator="out"/>
<feColorMatrix type="matrix" values="0 0 0 0 0 0 0 0 0 0 0 0 0 0 0 0 0 0 0.25 0"/>
<feBlend mode="normal" in2="BackgroundImageFix" result="effect1_dropShadow_546_187"/>
<feBlend mode="normal" in="SourceGraphic" in2="effect1_dropShadow_546_187" result="shape"/>
</filter>
</defs>
</svg>
