<svg width="89" height="91" viewBox="0 0 89 91" fill="none" xmlns="http://www.w3.org/2000/svg">
<g filter="url(#filter0_d_585_110)">
<path d="M59.3333 63.0417L60.1121 63.8204C61.4804 65.1888 62.1628 65.8711 62.9897 65.8229C63.8167 65.7784 64.4212 65.0256 65.6301 63.5126L70.4583 57.4792M59.9674 29.3329V35.2292M59.9674 29.3329C59.9674 26.5368 62.3185 24.271 65.2147 24.271C68.1072 24.271 70.4583 26.5368 70.4583 29.3292V35.2292M59.9674 29.3329V19.2129C59.9674 16.4205 57.6201 14.1547 54.7239 14.1547C51.8277 14.1547 49.4766 16.4168 49.4766 19.2129M49.4766 19.2129V35.2292M49.4766 19.2129V12.4748C49.4766 9.67875 47.1329 7.41666 44.233 7.41666C41.3331 7.41666 38.9894 9.67875 38.9894 12.4748V22.5837M38.9894 22.5837C38.9894 19.7914 36.6383 17.5256 33.7421 17.5256C30.8496 17.5256 28.4985 19.7877 28.4985 22.5837V46.8622C28.4985 48.4049 26.522 49.1354 25.4466 47.9932L16.9545 38.9486C16.2326 38.1119 15.2649 37.5245 14.1895 37.2702C13.1141 37.0158 11.9858 37.1074 10.9655 37.532C7.22753 39.0784 6.34866 44.5334 8.77762 47.678C12.9384 53.0625 17.1955 60.4087 20.6369 66.8872C25.3094 75.6871 34.5246 81.5833 44.767 81.5833M38.9894 22.5837V35.2292M48.2083 57.3086V58.74C48.2083 63.1974 48.2083 65.4261 48.7572 67.4657C49.4429 69.9955 50.7334 72.3206 52.5174 74.2408C53.9637 75.8057 55.8772 77.0221 59.7005 79.4585C61.41 80.5487 62.2666 81.0938 63.1789 81.3497C64.3025 81.6612 65.4929 81.6612 66.6165 81.3497C67.525 81.0938 68.3817 80.5487 70.0912 79.4585C73.9145 77.0221 75.828 75.8057 77.2742 74.2408C79.0583 72.3206 80.3488 69.9955 81.0345 67.4657C81.5833 65.4261 81.5833 63.2011 81.5833 58.74V57.3086C81.5833 54.5347 81.5833 53.1478 81.0567 51.976C80.7263 51.2527 80.262 50.5984 79.6884 50.0477C78.7502 49.1577 77.4189 48.6682 74.7563 47.6929L69.2902 45.6904C67.1171 44.8968 66.0306 44.5 64.8958 44.5C63.7611 44.5 62.6745 44.8968 60.5015 45.6941L55.0354 47.6966C52.3728 48.6682 51.0415 49.154 50.1033 50.0477C49.5283 50.5981 49.0627 51.2524 48.7312 51.976C48.2083 53.1478 48.2083 54.5347 48.2083 57.3086Z" stroke="#037EE6" stroke-width="1.5" stroke-linecap="round" stroke-linejoin="round"/>
</g>
<defs>
<filter id="filter0_d_585_110" x="-4" y="0" width="97" height="97" filterUnits="userSpaceOnUse" color-interpolation-filters="sRGB">
<feFlood flood-opacity="0" result="BackgroundImageFix"/>
<feColorMatrix in="SourceAlpha" type="matrix" values="0 0 0 0 0 0 0 0 0 0 0 0 0 0 0 0 0 0 127 0" result="hardAlpha"/>
<feOffset dy="4"/>
<feGaussianBlur stdDeviation="2"/>
<feComposite in2="hardAlpha" operator="out"/>
<feColorMatrix type="matrix" values="0 0 0 0 0 0 0 0 0 0 0 0 0 0 0 0 0 0 0.25 0"/>
<feBlend mode="normal" in2="BackgroundImageFix" result="effect1_dropShadow_585_110"/>
<feBlend mode="normal" in="SourceGraphic" in2="effect1_dropShadow_585_110" result="shape"/>
</filter>
</defs>
</svg>
