<svg width="93" height="92" viewBox="0 0 93 92" fill="none" xmlns="http://www.w3.org/2000/svg">
<g filter="url(#filter0_d_585_158)">
<path d="M40.8819 83.791C33.3818 82.8187 25.661 79.6021 20.0373 75.1005C7.37597 64.9988 1.62872 49.0395 4.91361 33.1906C6.32217 26.3475 9.99074 19.147 14.6868 13.9595C18.1485 10.0687 22.3198 6.87311 26.9776 4.54366C33.1637 1.40856 39.0765 0 46.0562 0C51.065 0 55.091 0.656979 59.703 2.2311C65.7621 4.30902 71.2667 7.74301 75.7973 12.2712C80.3278 16.7995 83.7645 22.3024 85.8455 28.3604C88.3105 35.5872 88.7598 43.2791 87.1857 50.9027C85.927 56.9259 82.6815 63.7006 78.687 68.5991C77.0446 70.6252 73.2657 74.2386 71.2816 75.7023C65.3466 80.1118 58.3655 82.8995 51.0256 83.791C48.8628 84.0643 42.9737 84.0512 40.8819 83.791ZM52.3396 80.2749C57.4123 79.4253 62.2679 77.5846 66.629 74.858C70.9902 72.1313 74.7714 68.5722 77.7568 64.3839C84.86 54.4057 86.7626 41.0191 82.7524 29.3459C81.809 26.6076 79.4675 22.0377 77.7568 19.6279C75.8542 16.9317 71.1449 12.2093 68.4356 10.3067C65.8076 8.44612 61.3323 6.18611 58.2787 5.1875C52.7667 3.35564 46.9135 2.78596 41.1517 3.52057C35.3899 4.25518 29.8669 6.27529 24.9909 9.43158C20.4034 12.4459 16.4817 16.3675 13.4675 20.955C10.3118 25.8283 8.29198 31.3487 7.55737 37.1078C6.82275 42.867 7.39212 48.7176 9.22339 54.227C10.2351 57.278 12.4951 61.7691 14.3426 64.397C16.2583 67.0933 20.9675 71.8156 23.6638 73.7182C26.0867 75.4159 30.6435 77.7547 33.3818 78.7139C39.4767 80.7846 45.9881 81.3208 52.3396 80.2749ZM37.7757 66.1761C35.8104 65.8819 33.9251 65.1926 32.2334 64.15C30.7145 63.1777 19.2436 51.9407 18.6839 50.8869C18.04 49.6833 19.1622 47.4917 20.7652 46.8215L21.5168 46.5062L19.2042 44.1516C17.9323 42.8508 16.7261 41.4685 16.5342 41.0848C16.0822 40.2097 16.0691 38.3334 16.4922 37.4977C16.6709 37.1561 17.094 36.6358 17.4225 36.3467C17.9849 35.8815 18.0374 35.716 17.9849 34.5387C17.9165 33.498 18.0111 33.0881 18.4631 32.3076C19.1201 31.1855 20.4761 30.4312 21.8032 30.4181C22.5417 30.4181 22.7335 30.3235 23.0488 29.7743C23.8714 28.3368 26.2234 27.8165 28.0182 28.6942L28.9906 29.1593L29.4688 28.6942C30.1258 28.0924 31.4398 27.5589 32.3017 27.5589C34.0256 27.5589 36.4617 29.543 36.4617 30.9384C36.4617 32.6072 34.9428 32.8962 33.437 31.5139C32.4384 30.5837 31.9312 30.4864 31.5212 31.1434C31.3163 31.4588 31.8077 32.0474 34.7509 35.017C37.6942 37.9734 38.2277 38.6041 38.2277 39.1638C38.2044 39.5929 38.0218 39.9978 37.7155 40.2992C37.4092 40.6006 37.0015 40.7767 36.5721 40.7931C36.0386 40.7931 35.1635 40.0258 31.1244 36.0024C27.0039 31.895 26.2523 31.238 25.9238 31.4456C25.0329 32.008 25.3351 32.4179 30.1521 37.2481C32.7669 39.876 34.9165 42.2017 34.9165 42.4224C34.9165 42.8744 34.5066 43.7101 34.1649 43.9282C33.8846 44.0509 33.5798 44.1076 33.2741 44.0938C32.7117 44.1069 31.8497 43.3264 27.2667 38.7565C22.6678 34.1839 21.8453 33.4455 21.5168 33.6504C20.6128 34.226 20.915 34.6228 26.1577 39.8917C29.0195 42.7535 31.4135 45.3131 31.4818 45.5864C31.6316 46.0805 31.3031 46.9424 30.8669 47.242C30.5774 47.3651 30.264 47.4217 29.9498 47.4076C29.3874 47.4076 28.6778 46.7926 24.8858 43.0006C21.2303 39.3451 20.3815 38.5935 19.9164 38.6356C18.6024 38.7854 19.0676 39.374 25.8555 46.1777C31.742 52.0774 32.4936 52.9131 32.4936 53.528C32.5005 53.7539 32.4501 53.9779 32.3472 54.1792C32.2443 54.3804 32.0921 54.5524 31.9049 54.679C30.8511 55.5147 30.4412 55.3228 27.7844 52.7501C26.4283 51.4493 25.0329 50.1905 24.6624 49.9566C23.9923 49.5467 22.2946 49.368 21.9793 49.6965C21.8689 49.7911 24.3733 52.4348 27.5373 55.5672C32.8063 60.781 33.4081 61.3171 34.9559 62.0556C36.3817 62.7662 37.9521 63.1383 39.5451 63.1428C41.1381 63.1474 42.7107 62.7843 44.1405 62.0818C48.5606 59.9743 51.0125 54.8551 49.8063 50.2142C49.2045 47.9016 48.4503 46.7926 45.4124 43.6575C41.9094 40.0704 41.1 39.085 40.238 37.3611C39.2788 35.4322 38.8689 33.5558 38.8689 31.2144C38.8689 28.6811 39.1291 27.5327 40.2512 25.1649C41.3181 22.9075 43.5492 20.5398 45.754 19.3204C50.0796 16.9106 55.7743 17.1156 59.9053 19.8145C60.7279 20.3479 63.6974 23.1414 67.3923 26.8494C72.882 32.3523 73.5101 33.0644 73.5101 33.6925C73.5101 35.1851 72.2907 36.8407 70.9373 37.1824C70.4301 37.319 70.5274 37.4557 72.8268 39.7971C74.167 41.1531 75.4127 42.6169 75.6045 43.0689C76.2483 44.6167 75.9593 46.1199 74.782 47.3524C74.1802 47.9831 74.0987 48.2012 74.0829 49.46C74.0698 50.569 73.9463 51.0341 73.5074 51.6648C73.1608 52.1779 72.6967 52.6008 72.1537 52.8983C71.6107 53.1959 71.0045 53.3595 70.3855 53.3756C69.5367 53.3756 69.3737 53.457 68.948 54.1009C67.9888 55.5804 65.4975 56.0981 63.884 55.1415L63.0772 54.6632L62.5017 55.2256C61.2298 56.445 59.1748 56.6079 57.6164 55.6093C56.3577 54.8157 55.4274 53.7067 55.4274 53.0077C55.4274 52.3927 56.3182 51.3783 56.8648 51.3783C57.3852 51.3783 58.0842 51.7883 58.8778 52.5294C59.6715 53.281 60.3573 53.281 60.4651 52.5162C60.5203 52.1063 59.8633 51.3258 57.2065 48.6558C54.413 45.8361 53.8795 45.1922 53.8795 44.6456C53.8733 44.3405 53.9296 44.0373 54.0451 43.7548C54.3473 43.3028 55.1961 42.9874 55.7138 43.1241C55.9871 43.1924 58.2997 45.3289 60.833 47.8596C63.3794 50.406 65.6105 52.4847 65.8155 52.4847C66.3779 52.4847 66.7458 51.9223 66.4856 51.444C66.3621 51.2259 64.2125 49.0211 61.7212 46.5298C57.8214 42.6432 57.1907 41.9179 57.1907 41.3423C57.1785 41.0325 57.2351 40.7238 57.3563 40.4383C57.5902 40.0967 58.4101 39.6868 58.8752 39.6868C59.0802 39.6868 61.6529 42.0808 64.5962 45.0109C69.9887 50.3771 70.3855 50.6767 70.9478 49.7885C71.1528 49.46 70.4144 48.6243 65.8418 44.0386C61.1194 39.3031 60.4914 38.5909 60.4914 37.976C60.4914 37.5529 60.6832 37.114 60.9854 36.8407C61.984 35.8973 62.2862 36.0891 67.1452 40.9193C71.7441 45.505 72.154 45.8045 72.7164 44.9294C72.9214 44.601 71.9911 43.5892 66.2833 37.8656C60.0683 31.6243 59.6189 31.1171 59.6189 30.3918C59.6189 29.296 60.2496 28.7757 61.4663 28.8598C61.6844 28.8729 62.9984 29.9819 64.3544 31.309C65.7235 32.6361 67.2004 33.8817 67.6393 34.0735C68.5013 34.4283 69.4999 34.4835 69.9256 34.2102C70.3355 33.95 58.9751 22.7683 57.4982 21.9878C56.2319 21.3043 54.8391 20.8872 53.4055 20.7622C51.972 20.6372 50.528 20.8068 49.1625 21.2608C47.797 21.7147 46.5389 22.4433 45.4655 23.4017C44.3921 24.3601 43.5262 25.5281 42.9211 26.8336C42.209 28.3526 42.1144 28.8046 42.0171 30.7624C41.9357 32.6098 42.004 33.1853 42.4008 34.3626C43.113 36.4571 43.7279 37.319 46.9182 40.5776C50.3686 44.1095 51.0256 44.9163 51.9007 46.8058C54.3657 52.0616 53.325 58.14 49.2597 62.1896C46.1666 65.2958 41.9514 66.749 37.7757 66.1761Z" fill="#839FC6"/>
</g>
<defs>
<filter id="filter0_d_585_158" x="-0.0630582" y="0" width="92.172" height="92.1153" filterUnits="userSpaceOnUse" color-interpolation-filters="sRGB">
<feFlood flood-opacity="0" result="BackgroundImageFix"/>
<feColorMatrix in="SourceAlpha" type="matrix" values="0 0 0 0 0 0 0 0 0 0 0 0 0 0 0 0 0 0 127 0" result="hardAlpha"/>
<feOffset dy="4"/>
<feGaussianBlur stdDeviation="2"/>
<feComposite in2="hardAlpha" operator="out"/>
<feColorMatrix type="matrix" values="0 0 0 0 0 0 0 0 0 0 0 0 0 0 0 0 0 0 0.25 0"/>
<feBlend mode="normal" in2="BackgroundImageFix" result="effect1_dropShadow_585_158"/>
<feBlend mode="normal" in="SourceGraphic" in2="effect1_dropShadow_585_158" result="shape"/>
</filter>
</defs>
</svg>
