<svg width="98" height="11" viewBox="0 0 98 11" fill="none" xmlns="http://www.w3.org/2000/svg">
<path opacity="0.2" d="M39.1573 5.50004C39.1573 6.5887 38.8343 7.65288 38.2292 8.55778C37.624 9.46269 36.764 10.1676 35.7581 10.5832C34.7522 10.9989 33.6456 11.1066 32.5784 10.8927C31.5112 10.6788 30.5315 10.153 29.7634 9.38174C28.9952 8.61049 28.4731 7.62854 28.2633 6.56029C28.0535 5.49205 28.1653 4.38559 28.5847 3.38097C29.004 2.37635 29.712 1.51876 30.6189 0.916904C31.5258 0.315043 32.5909 -0.00403881 33.6793 3.85945e-05C35.134 0.00548848 36.5273 0.587356 37.554 1.61821C38.5808 2.64906 39.1573 4.04492 39.1573 5.50004Z" fill="#037EE6"/>
<path opacity="0.2" d="M68.4829 5.50005C68.4829 6.58784 68.1604 7.65119 67.5563 8.55566C66.9521 9.46012 66.0933 10.165 65.0886 10.5813C64.0839 10.9976 62.9783 11.1065 61.9117 10.8943C60.8451 10.6821 59.8653 10.1583 59.0963 9.3891C58.3273 8.61992 57.8036 7.6399 57.5915 6.57301C57.3793 5.50612 57.4882 4.40024 57.9044 3.39526C58.3206 2.39027 59.0253 1.53133 59.9295 0.926984C60.8338 0.32264 61.8968 6.13843e-05 62.9844 6.13843e-05C64.441 0.00548792 65.8364 0.586704 66.8664 1.61697C67.8964 2.64724 68.4775 4.04304 68.4829 5.50005Z" fill="#037EE6"/>
<path d="M97.8086 5.50005C97.8086 6.58784 97.4862 7.65119 96.882 8.55566C96.2778 9.46012 95.419 10.165 94.4143 10.5813C93.4095 10.9976 92.3039 11.1065 91.2373 10.8943C90.1707 10.6821 89.191 10.1583 88.422 9.3891C87.653 8.61992 87.1293 7.6399 86.9171 6.57301C86.705 5.50612 86.8139 4.40024 87.23 3.39526C87.6462 2.39027 88.351 1.53133 89.2552 0.926984C90.1595 0.32264 91.2226 6.13843e-05 92.3101 6.13843e-05C93.7684 6.13843e-05 95.167 0.579496 96.1981 1.61094C97.2293 2.64238 97.8086 4.04137 97.8086 5.50005Z" fill="#037EE6"/>
<path opacity="0.2" d="M10.9971 5.50004C10.9971 6.5887 10.6741 7.65288 10.069 8.55778C9.46389 9.46269 8.60389 10.1676 7.59796 10.5832C6.59203 10.9989 5.48543 11.1066 4.41826 10.8927C3.35108 10.6788 2.37136 10.153 1.6032 9.38174C0.835037 8.61049 0.312987 7.62854 0.103155 6.56029C-0.106676 5.49205 0.00516176 4.38559 0.424494 3.38097C0.843826 2.37635 1.5518 1.51876 2.45874 0.916904C3.36568 0.315044 4.43078 -0.00403881 5.51916 3.85945e-05C6.97389 0.00548848 8.36716 0.587356 9.39389 1.61821C10.4206 2.64906 10.9971 4.04492 10.9971 5.50004Z" fill="#037EE6"/>
</svg>
