<svg width="96" height="11" viewBox="0 0 96 11" fill="none" xmlns="http://www.w3.org/2000/svg">
<path opacity="0.2" d="M10.942 5.47248C10.942 6.5557 10.6206 7.61454 10.0186 8.51491C9.41648 9.41529 8.56079 10.1166 7.5599 10.5302C6.55901 10.9438 5.45795 11.051 4.39613 10.8382C3.3343 10.6253 2.35948 10.1021 1.59517 9.33474C0.830854 8.56736 0.311419 7.59032 0.102638 6.52743C-0.106142 5.46454 0.00513592 4.36362 0.422368 3.36403C0.839599 2.36444 1.54403 1.51116 2.44642 0.912311C3.34882 0.313465 4.40858 -0.00401858 5.49151 3.84012e-05C6.93896 0.00546099 8.32524 0.584413 9.34683 1.6101C10.3684 2.63579 10.942 4.02465 10.942 5.47248Z" fill="#037EE6"/>
<path d="M40.1207 5.4725C40.1207 6.55484 39.7999 7.61287 39.1987 8.5128C38.5975 9.41274 37.7431 10.1141 36.7434 10.5283C35.7437 10.9425 34.6437 11.0509 33.5824 10.8397C32.5211 10.6286 31.5462 10.1074 30.7811 9.34207C30.016 8.57674 29.4949 7.60163 29.2838 6.54008C29.0727 5.47854 29.1811 4.3782 29.5952 3.37825C30.0093 2.3783 30.7105 1.52366 31.6102 0.92234C32.5099 0.321024 33.5676 6.10768e-05 34.6497 6.10768e-05C36.099 0.00546043 37.4875 0.583765 38.5123 1.60887C39.5372 2.63398 40.1153 4.02279 40.1207 5.4725Z" fill="#037EE6"/>
<path opacity="0.2" d="M69.2996 5.4725C69.2996 6.55484 68.9787 7.61287 68.3776 8.5128C67.7764 9.41274 66.9219 10.1141 65.9222 10.5283C64.9225 10.9425 63.8225 11.0509 62.7612 10.8397C61.6999 10.6286 60.7251 10.1074 59.96 9.34207C59.1949 8.57674 58.6737 7.60163 58.4626 6.54008C58.2515 5.47854 58.3599 4.3782 58.774 3.37825C59.1881 2.3783 59.8893 1.52366 60.789 0.92234C61.6888 0.321024 62.7465 6.10768e-05 63.8286 6.10768e-05C65.2796 6.10768e-05 66.6711 0.576593 67.6972 1.60287C68.7232 2.62915 69.2996 4.02113 69.2996 5.4725Z" fill="#037EE6"/>
<path opacity="0.2" d="M96 5.47244C96 6.55478 95.6792 7.61281 95.078 8.51274C94.4769 9.41267 93.6224 10.1141 92.6227 10.5282C91.623 10.9424 90.5229 11.0508 89.4617 10.8397C88.4004 10.6285 87.4256 10.1073 86.6604 9.34201C85.8953 8.57668 85.3742 7.60156 85.1631 6.54002C84.952 5.47848 85.0604 4.37814 85.4744 3.37819C85.8885 2.37824 86.5898 1.5236 87.4895 0.922279C88.3892 0.320963 89.447 0 90.529 0C91.98 0 93.3716 0.576532 94.3976 1.60281C95.4236 2.62908 96 4.02107 96 5.47244Z" fill="#037EE6"/>
</svg>
