<svg width="407" height="390" viewBox="0 0 407 390" fill="none" xmlns="http://www.w3.org/2000/svg">
<g filter="url(#filter0_d_546_66)">
<path d="M402.75 0.25V174.716C383.518 185.019 358.706 202.492 330.977 223.04C303.174 243.642 272.445 267.331 241.424 290.019C210.407 312.703 179.12 334.372 150.227 350.919C121.778 367.211 95.6784 378.521 74.458 380.964L73.4512 381.073C44.8175 383.944 22.0886 377.406 4.25 366.664V0.25H402.75Z" fill="#8EAFDE" stroke="#6F6F6F" stroke-width="0.5"/>
<path opacity="0.2" d="M402.75 0.25V174.616C386.202 183.543 365.306 197.864 342.031 214.868C297.697 207.599 256.986 182.027 227.16 142.697C197.358 103.399 180.364 52.9219 179.205 0.25H402.75Z" fill="white" stroke="#6F6F6F" stroke-width="0.5"/>
</g>
<defs>
<filter id="filter0_d_546_66" x="0" y="0" width="407" height="390" filterUnits="userSpaceOnUse" color-interpolation-filters="sRGB">
<feFlood flood-opacity="0" result="BackgroundImageFix"/>
<feColorMatrix in="SourceAlpha" type="matrix" values="0 0 0 0 0 0 0 0 0 0 0 0 0 0 0 0 0 0 127 0" result="hardAlpha"/>
<feOffset dy="4"/>
<feGaussianBlur stdDeviation="2"/>
<feComposite in2="hardAlpha" operator="out"/>
<feColorMatrix type="matrix" values="0 0 0 0 0 0 0 0 0 0 0 0 0 0 0 0 0 0 0.25 0"/>
<feBlend mode="normal" in2="BackgroundImageFix" result="effect1_dropShadow_546_66"/>
<feBlend mode="normal" in="SourceGraphic" in2="effect1_dropShadow_546_66" result="shape"/>
</filter>
</defs>
</svg>
