<svg width="114" height="94" viewBox="0 0 114 94" fill="none" xmlns="http://www.w3.org/2000/svg">
<g filter="url(#filter0_d_546_127)">
<path d="M20.0667 1.00565L20.9726 4.9464C21.6217 7.77619 23.1257 10.4191 25.339 12.6193C27.5522 14.8195 30.3997 16.5024 33.606 17.5053L34.7932 17.8761L33.5993 18.2247C30.3749 19.1676 27.4965 20.7972 25.2426 22.9558C22.9888 25.1143 21.4358 27.7287 20.734 30.546L19.7548 34.4691L18.8489 30.5284C18.1997 27.6986 16.6957 25.0557 14.4825 22.8555C12.2692 20.6553 9.4217 18.9724 6.21548 17.9695L5.02823 17.5987L6.22218 17.2501C9.44654 16.3072 12.325 14.6776 14.5788 12.519C16.8327 10.3604 18.3857 7.74604 19.0875 4.92883L20.0667 1.00565ZM34.4034 59.7054L35.4946 65.0535C35.7779 66.4485 36.4759 67.7613 37.5232 68.8692C38.5705 69.9771 39.933 70.8438 41.4834 71.3884L44.2081 72.3467L41.466 73.254C39.9055 73.7687 38.5265 74.609 37.4578 75.6964C36.3892 76.7839 35.6658 78.0828 35.3553 79.472L34.1695 84.8031L33.0782 79.455C32.7949 78.06 32.097 76.7472 31.0497 75.6393C30.0024 74.5314 28.6398 73.6647 27.0895 73.1201L24.3648 72.1618L27.1069 71.2545C28.6674 70.7398 30.0464 69.8995 31.1151 68.8121C32.1837 67.7246 32.9071 66.4256 33.2176 65.0365L34.4034 59.7054ZM74.5968 5.69714L77.2516 16.8244C78.6046 22.4973 81.6767 27.7825 86.1686 32.1646C90.6604 36.5467 96.4186 39.8762 102.882 41.8283L108.972 43.6672L102.848 45.3922C96.3501 47.2236 90.5309 50.4451 85.9582 54.7427C81.3854 59.0404 78.2153 64.2674 76.7568 69.9142L73.8951 80.99L71.2404 69.8628C69.8874 64.1898 66.8152 58.9046 62.3234 54.5225C57.8315 50.1404 52.0734 46.8109 45.6103 44.8588L39.5202 43.0199L45.6435 41.2949C52.1418 39.4636 57.9611 36.242 62.5338 31.9444C67.1065 27.6467 70.2767 22.4197 71.7351 16.7729L74.5968 5.69714Z" stroke="#FCD34D" stroke-width="2" stroke-linecap="round" stroke-linejoin="round" shape-rendering="crispEdges"/>
</g>
<defs>
<filter id="filter0_d_546_127" x="0" y="0" width="114" height="93.8539" filterUnits="userSpaceOnUse" color-interpolation-filters="sRGB">
<feFlood flood-opacity="0" result="BackgroundImageFix"/>
<feColorMatrix in="SourceAlpha" type="matrix" values="0 0 0 0 0 0 0 0 0 0 0 0 0 0 0 0 0 0 127 0" result="hardAlpha"/>
<feOffset dy="4"/>
<feGaussianBlur stdDeviation="2"/>
<feComposite in2="hardAlpha" operator="out"/>
<feColorMatrix type="matrix" values="0 0 0 0 0 0 0 0 0 0 0 0 0 0 0 0 0 0 0.25 0"/>
<feBlend mode="normal" in2="BackgroundImageFix" result="effect1_dropShadow_546_127"/>
<feBlend mode="normal" in="SourceGraphic" in2="effect1_dropShadow_546_127" result="shape"/>
</filter>
</defs>
</svg>
