<svg width="98" height="11" viewBox="0 0 98 11" fill="none" xmlns="http://www.w3.org/2000/svg">
<path opacity="0.2" d="M10.9419 5.47241C10.9419 6.55561 10.6205 7.61443 10.0184 8.5148C9.41635 9.41516 8.56067 10.1165 7.55979 10.5301C6.55892 10.9437 5.45788 11.0508 4.39606 10.838C3.33425 10.6252 2.35945 10.102 1.59514 9.33461C0.830842 8.56724 0.311415 7.59022 0.102637 6.52734C-0.106141 5.46446 0.00513584 4.36356 0.422362 3.36398C0.839588 2.36441 1.54401 1.51114 2.44639 0.912298C3.34877 0.313461 4.40852 -0.00401852 5.49143 3.84007e-05C6.93886 0.00546091 8.32513 0.584405 9.3467 1.61008C10.3683 2.63576 10.9419 4.0246 10.9419 5.47241Z" fill="#037EE6"/>
<path opacity="0.2" d="M40.1202 5.47243C40.1202 6.55475 39.7993 7.61276 39.1981 8.51268C38.597 9.4126 37.7426 10.114 36.7429 10.5282C35.7432 10.9423 34.6432 11.0507 33.5819 10.8396C32.5207 10.6284 31.5458 10.1073 30.7807 9.34194C30.0156 8.57662 29.4945 7.60152 29.2834 6.53999C29.0723 5.47846 29.1807 4.37814 29.5948 3.3782C30.0088 2.37826 30.71 1.52364 31.6097 0.922328C32.5094 0.321019 33.5672 6.10759e-05 34.6492 6.10759e-05C36.0985 0.00546036 37.487 0.583757 38.5118 1.60885C39.5366 2.63395 40.1148 4.02273 40.1202 5.47243Z" fill="#037EE6"/>
<path d="M69.2986 5.47243C69.2986 6.55475 68.9778 7.61276 68.3766 8.51268C67.7755 9.4126 66.921 10.114 65.9213 10.5282C64.9216 10.9423 63.8216 11.0507 62.7603 10.8396C61.6991 10.6284 60.7243 10.1073 59.9592 9.34194C59.194 8.57662 58.6729 7.60152 58.4618 6.53999C58.2507 5.47846 58.3591 4.37814 58.7732 3.3782C59.1873 2.37826 59.8885 1.52364 60.7882 0.922328C61.6879 0.321019 62.7456 6.10759e-05 63.8277 6.10759e-05C65.2787 6.10759e-05 66.6702 0.576585 67.6962 1.60285C68.7222 2.62911 69.2986 4.02107 69.2986 5.47243Z" fill="#037EE6"/>
<path opacity="0.2" d="M98 5.47241C98 6.55561 97.6786 7.61443 97.0765 8.5148C96.4745 9.41516 95.6188 10.1165 94.6179 10.5301C93.617 10.9437 92.516 11.0508 91.4542 10.838C90.3924 10.6252 89.4176 10.102 88.6533 9.33461C87.889 8.56724 87.3695 7.59022 87.1608 6.52734C86.952 5.46446 87.0633 4.36356 87.4805 3.36398C87.8977 2.36441 88.6021 1.51114 89.5045 0.912298C90.4069 0.313461 91.4666 -0.00401852 92.5496 3.84007e-05C93.997 0.00546091 95.3833 0.584405 96.4048 1.61008C97.4264 2.63576 98 4.0246 98 5.47241Z" fill="#037EE6"/>
</svg>
