<svg width="124" height="124" viewBox="0 0 124 124" fill="none" xmlns="http://www.w3.org/2000/svg">
<g filter="url(#filter0_d_585_155)">
<path d="M20.9163 68.3376C20.4682 67.9963 20.0295 67.6427 19.6006 67.2774C19.9069 67.7685 20.3558 68.1492 20.9163 68.3376ZM24.2271 19.2956H99.505V63.3355C102.144 61.8723 103.561 60.8753 104.532 60.2367V16.7747C104.531 16.1075 104.266 15.4679 103.794 14.9964C103.322 14.5249 102.682 14.26 102.015 14.26H21.7099C20.3174 14.26 19.189 15.3884 19.189 16.7747V60.3483C20.145 60.951 21.5177 61.9616 24.2271 63.4731V19.2956Z" fill="#1D324E" fill-opacity="0.4"/>
<path d="M108.861 59.4927C108.212 58.9756 107.314 58.9781 105.89 59.4927C105.474 59.644 105.054 59.8957 104.532 60.2367C103.561 60.8753 102.145 61.8723 99.505 63.3355C98.6903 63.7819 97.8024 64.263 96.7261 64.8024C96.3888 64.971 96.064 65.1087 95.7304 65.2699C89.6631 68.1268 84.2058 69.0444 84.2058 69.0444H66.1328C65.7906 69.0444 64.6944 69.2552 64.1687 70.0476C63.6504 70.8387 63.7372 72.1432 63.7372 72.1432V74.3454C64.3894 74.808 65.0788 75.2221 65.839 75.4838C71.2875 77.3413 74.974 75.7218 76.5823 73.465C78.4634 70.8189 79.4207 69.3371 81.4865 70.1108C83.5523 70.8846 81.4865 75.914 78.9073 78.497C76.3219 81.0811 73.2232 83.1457 68.8385 83.1457C66.9959 83.1457 65.2103 82.8692 63.7372 82.5555V101.318C63.7372 106.613 69.3643 109.442 73.2331 109.442C77.1019 109.442 84.8482 107.25 88.593 97.9563C92.334 88.665 88.3387 76.4038 88.3387 76.4038C88.3387 76.4038 94.3999 73.687 100.728 69.6905C107.049 65.6915 108.732 61.9454 108.861 61.4197C108.985 60.8902 109.501 60.011 108.861 59.4927Z" fill="#1D324E" fill-opacity="0.4"/>
<path d="M78.9073 78.4957C81.4865 75.9128 83.5524 70.8834 81.4865 70.1096C79.4207 69.3358 78.4634 70.8176 76.5823 73.4638C74.974 75.7206 71.2875 77.34 65.839 75.4825C65.0788 75.2209 64.3894 74.8067 63.7372 74.3442C61.0464 72.4309 59.2149 69.3358 57.867 69.3358H39.794C39.794 69.3358 34.7807 68.4877 29.0258 65.906C28.448 65.6456 27.8664 65.3877 27.2762 65.0913C26.2472 64.5756 25.2306 64.0356 24.227 63.4719C21.5176 61.9603 20.145 60.951 19.1889 60.3471C18.7909 60.0954 18.4536 59.9069 18.1089 59.7829C16.6903 59.267 15.7864 59.267 15.1403 59.7829C14.498 60.3012 15.0114 61.1816 15.1403 61.7086C15.2395 62.1116 16.2724 64.4168 19.5994 67.2762C20.7587 68.2633 21.9865 69.1671 23.2735 69.9806C29.595 73.9821 35.6623 76.6915 35.6623 76.6915C35.6623 76.6915 31.6608 88.9502 35.4081 98.244C39.1504 107.537 46.8942 109.739 50.7655 109.739C54.638 109.739 60.2652 106.89 60.2652 101.599V81.597C60.2652 81.597 61.6936 82.1178 63.7359 82.553C65.209 82.8667 66.9946 83.1432 68.8373 83.1432C73.2232 83.1445 76.3219 81.0799 78.9073 78.4957ZM75.661 42.6324C72.6825 42.6331 69.8262 43.8165 67.72 45.9225C65.6138 48.0285 64.4301 50.8846 64.4291 53.8631C64.4291 60.0619 69.4573 65.0926 75.661 65.0926C81.8585 65.0926 86.8855 60.0619 86.8855 53.8631C86.8855 47.6631 81.8585 42.6324 75.661 42.6324Z" fill="#1D324E" fill-opacity="0.4"/>
<path d="M49.0346 42.6324C42.8346 42.6324 37.8088 47.6631 37.8088 53.8631C37.8088 60.0619 42.8333 65.0926 49.0346 65.0926C55.2383 65.0926 60.2665 60.0619 60.2665 53.8631C60.2665 47.6631 55.2383 42.6324 49.0346 42.6324Z" fill="#1D324E" fill-opacity="0.4"/>
</g>
<defs>
<filter id="filter0_d_585_155" x="-4" y="0" width="132" height="132" filterUnits="userSpaceOnUse" color-interpolation-filters="sRGB">
<feFlood flood-opacity="0" result="BackgroundImageFix"/>
<feColorMatrix in="SourceAlpha" type="matrix" values="0 0 0 0 0 0 0 0 0 0 0 0 0 0 0 0 0 0 127 0" result="hardAlpha"/>
<feOffset dy="4"/>
<feGaussianBlur stdDeviation="2"/>
<feComposite in2="hardAlpha" operator="out"/>
<feColorMatrix type="matrix" values="0 0 0 0 0 0 0 0 0 0 0 0 0 0 0 0 0 0 0.25 0"/>
<feBlend mode="normal" in2="BackgroundImageFix" result="effect1_dropShadow_585_155"/>
<feBlend mode="normal" in="SourceGraphic" in2="effect1_dropShadow_585_155" result="shape"/>
</filter>
</defs>
</svg>
