<svg width="116" height="116" viewBox="0 0 116 116" fill="none" xmlns="http://www.w3.org/2000/svg">
<g filter="url(#filter0_d_546_133)">
<g filter="url(#filter1_d_546_133)">
<path d="M72.5 9.66667L75.1051 21.228C76.1899 26.0308 78.6137 30.4278 82.0953 33.9095C85.577 37.3911 89.974 39.8148 94.7768 40.8997L106.333 43.5L94.7719 46.1052C89.9692 47.19 85.5721 49.6137 82.0905 53.0953C78.6088 56.577 76.1851 60.974 75.1003 65.7768L72.5 77.3333L69.8948 65.772C68.81 60.9692 66.3863 56.5722 62.9046 53.0905C59.423 49.6089 55.0259 47.1852 50.2231 46.1003L38.6666 43.5L50.228 40.8948C55.0308 39.81 59.4278 37.3863 62.9094 33.9047C66.3911 30.423 68.8148 26.026 69.8996 21.2232L72.5 9.66667ZM33.8333 58L35.6941 66.2553C36.4691 69.6857 38.2002 72.8262 40.687 75.313C43.1737 77.7997 46.3143 79.5309 49.7446 80.3058L58 82.1667L49.7446 84.0275C46.3143 84.8024 43.1737 86.5336 40.687 89.0204C38.2002 91.5071 36.4691 94.6476 35.6941 98.078L33.8333 106.333L31.9725 98.078C31.1975 94.6476 29.4664 91.5071 26.9796 89.0204C24.4928 86.5336 21.3523 84.8024 17.922 84.0275L9.66663 82.1667L17.922 80.3058C21.3523 79.5309 24.4928 77.7997 26.9796 75.313C29.4664 72.8262 31.1975 69.6857 31.9725 66.2553L33.8333 58Z" stroke="#FCD34D" stroke-width="1.5" stroke-linejoin="round" shape-rendering="crispEdges"/>
</g>
</g>
<defs>
<filter id="filter0_d_546_133" x="-4" y="0" width="124" height="124" filterUnits="userSpaceOnUse" color-interpolation-filters="sRGB">
<feFlood flood-opacity="0" result="BackgroundImageFix"/>
<feColorMatrix in="SourceAlpha" type="matrix" values="0 0 0 0 0 0 0 0 0 0 0 0 0 0 0 0 0 0 127 0" result="hardAlpha"/>
<feOffset dy="4"/>
<feGaussianBlur stdDeviation="2"/>
<feComposite in2="hardAlpha" operator="out"/>
<feColorMatrix type="matrix" values="0 0 0 0 0 0 0 0 0 0 0 0 0 0 0 0 0 0 0.25 0"/>
<feBlend mode="normal" in2="BackgroundImageFix" result="effect1_dropShadow_546_133"/>
<feBlend mode="normal" in="SourceGraphic" in2="effect1_dropShadow_546_133" result="shape"/>
</filter>
<filter id="filter1_d_546_133" x="4.91663" y="8.91667" width="106.167" height="106.167" filterUnits="userSpaceOnUse" color-interpolation-filters="sRGB">
<feFlood flood-opacity="0" result="BackgroundImageFix"/>
<feColorMatrix in="SourceAlpha" type="matrix" values="0 0 0 0 0 0 0 0 0 0 0 0 0 0 0 0 0 0 127 0" result="hardAlpha"/>
<feOffset dy="4"/>
<feGaussianBlur stdDeviation="2"/>
<feComposite in2="hardAlpha" operator="out"/>
<feColorMatrix type="matrix" values="0 0 0 0 0 0 0 0 0 0 0 0 0 0 0 0 0 0 0.25 0"/>
<feBlend mode="normal" in2="BackgroundImageFix" result="effect1_dropShadow_546_133"/>
<feBlend mode="normal" in="SourceGraphic" in2="effect1_dropShadow_546_133" result="shape"/>
</filter>
</defs>
</svg>
